<?xml version="1.0" encoding="UTF-8"?>
<svg version="1.1" xmlns="http://www.w3.org/2000/svg" width="512" height="512">
<path d="M0 0 C1.12459122 -0.00696899 2.24918243 -0.01393799 3.40785217 -0.02111816 C7.0115234 -0.03839279 10.61503911 -0.04483641 14.21875 -0.046875 C15.44906952 -0.04788208 16.67938904 -0.04888916 17.94699097 -0.04992676 C36.06287321 -0.03988609 53.79425042 0.36615384 71.71875 3.203125 C72.70375488 3.35297852 73.68875977 3.50283203 74.70361328 3.65722656 C101.61129362 7.84335949 131.94157517 14.47387959 152.71875 33.203125 C153.37617188 33.77933594 154.03359375 34.35554688 154.7109375 34.94921875 C161.97832662 41.70196444 167.03172407 51.13916054 167.99925697 61.0872829 C168.10715202 64.45139585 168.12340149 67.80418788 168.10643005 71.17001343 C168.11450836 73.09938482 168.11450836 73.09938482 168.12274987 75.06773341 C168.13714851 78.61773182 168.13297738 82.16749696 168.12558305 85.71750784 C168.12083976 89.55401862 168.13337149 93.39047978 168.14360046 97.22697449 C168.16077129 104.73525192 168.16163202 112.24344561 168.15638756 119.75173758 C168.15234131 125.85650988 168.15379482 131.96125747 168.15913582 138.06602859 C168.15988424 138.93587202 168.16063266 139.80571545 168.16140376 140.70191777 C168.16293529 142.46917593 168.16447364 144.23643408 168.16601873 146.00369222 C168.17973765 162.56609855 168.17431044 179.12845761 168.16283352 195.69086285 C168.15290251 210.83074471 168.1658406 225.97050433 168.18976771 241.11036734 C168.21417203 256.66985884 168.22376326 272.22929344 168.21711498 287.7888037 C168.21362563 296.5187273 168.21583602 305.24855693 168.23336601 313.97846603 C168.24810469 321.41026939 168.24870175 328.84191259 168.2312951 336.27371286 C168.22279625 340.06248699 168.22060793 343.85097522 168.23594666 347.63973427 C168.25239699 351.75414318 168.23761584 355.86786544 168.21995544 359.98226929 C168.22956045 361.16973767 168.23916546 362.35720605 168.24906152 363.58065832 C168.13545202 376.4718515 163.93899633 385.50439818 155.28125 394.828125 C154.435625 395.611875 153.59 396.395625 152.71875 397.203125 C152.265 397.65042969 151.81125 398.09773438 151.34375 398.55859375 C126.43555854 421.78548228 79.36406529 430.29332106 46.71875 429.203125 C46.77675781 430.00234375 46.83476562 430.8015625 46.89453125 431.625 C47.39352099 443.77183605 43.83681797 452.71221552 35.921875 461.90234375 C3.08452606 496.19524894 -57.47057306 498.03958278 -101.58203125 499.0703125 C-137.76800443 499.81162102 -174.931946 496.02075703 -209.28125 484.203125 C-209.96219727 483.97012695 -210.64314453 483.73712891 -211.34472656 483.49707031 C-228.81500064 477.37427035 -246.75641302 467.46538935 -255.28125 450.203125 C-258.50197086 442.93362848 -258.70858149 436.10002623 -258.66893005 428.23623657 C-258.67431559 426.94998898 -258.67970113 425.66374139 -258.68524987 424.33851659 C-258.69964851 420.78851818 -258.69547738 417.23875304 -258.68808305 413.68874216 C-258.68333976 409.85223138 -258.69587149 406.01577022 -258.70610046 402.17927551 C-258.72327129 394.67099808 -258.72413202 387.16280439 -258.71888756 379.65451242 C-258.71484131 373.54974012 -258.71629482 367.44499253 -258.72163582 361.34022141 C-258.72238424 360.47037798 -258.72313266 359.60053455 -258.72390376 358.70433223 C-258.72543529 356.93707407 -258.72697364 355.16981592 -258.72851873 353.40255778 C-258.74223765 336.84015145 -258.73681044 320.27779239 -258.72533352 303.71538715 C-258.71540251 288.57550529 -258.7283406 273.43574567 -258.75226771 258.29588266 C-258.77667203 242.73639116 -258.78626326 227.17695656 -258.77961498 211.6174463 C-258.77612563 202.8875227 -258.77833602 194.15769307 -258.79586601 185.42778397 C-258.81060469 177.99598061 -258.81120175 170.56433741 -258.7937951 163.13253714 C-258.78529625 159.34376301 -258.78310793 155.55527478 -258.79844666 151.76651573 C-258.81489699 147.65210682 -258.80011584 143.53838456 -258.78245544 139.42398071 C-258.79206045 138.23651233 -258.80166546 137.04904395 -258.81156152 135.82559168 C-258.69321417 122.39679781 -253.76371969 111.92823431 -244.71875 102.140625 C-219.87634611 78.42742129 -173.42558194 69.1584355 -140.08203125 69.125 C-139.15777344 69.15078125 -138.23351562 69.1765625 -137.28125 69.203125 C-137.32765625 68.46449219 -137.3740625 67.72585937 -137.421875 66.96484375 C-137.87487323 54.23235787 -133.83340086 44.64469955 -125.28125 35.203125 C-93.660008 5.96757341 -40.93993145 0.17218826 0 0 Z M-110.28125 52.203125 C-114.5609594 57.29966065 -115.4056296 61.61100623 -115.28125 68.203125 C-114.34780762 68.21770752 -113.41436523 68.23229004 -112.45263672 68.24731445 C-2.33097926 70.15339574 -2.33097926 70.15339574 22.71875 95.203125 C55.54447951 98.2189164 95.28254313 88.71159138 124.71875 74.203125 C125.32219238 73.90760742 125.92563477 73.61208984 126.54736328 73.30761719 C133.33056249 69.94085436 139.23054471 66.43606492 144.71875 61.203125 C143.2049553 53.63415149 137.84830073 49.35392005 131.74609375 45.16015625 C98.02217561 24.76803265 54.71858219 21.97805495 16.28125 21.953125 C15.33943878 21.95245026 14.39762756 21.95177551 13.42727661 21.95108032 C-24.8388778 21.994318 -81.11292857 23.0950687 -110.28125 52.203125 Z M139.85888672 90.69189453 C109.65001424 106.30395342 77.23334364 112.3823596 43.71875 116.203125 C44.04020996 117.34515381 44.36166992 118.48718262 44.69287109 119.66381836 C46.30260258 126.95550289 46.07762288 134.40249612 46.1328125 141.83203125 C46.15155129 143.43343574 46.17112666 145.03483065 46.1914978 146.63621521 C46.24253903 150.82327587 46.28231346 155.01036843 46.31964111 159.1975708 C46.35985771 163.48140169 46.41086894 167.76510306 46.4609375 172.04882812 C46.55736454 180.43350482 46.64187413 188.81824634 46.71875 197.203125 C50.47609679 196.75677508 54.23224769 196.30100867 57.98828125 195.84375 C59.5584198 195.6573999 59.5584198 195.6573999 61.16027832 195.46728516 C89.13363723 192.03867535 120.6132498 184.73394394 142.71875 166.203125 C143.25007034 165.82081223 143.78139069 165.43849945 144.32881165 165.04460144 C146.44680921 162.23854706 146.11203172 159.35204535 146.05932617 155.9777832 C146.05976425 155.24582733 146.06020233 154.51387146 146.06065369 153.75973511 C146.05856398 151.34085395 146.03522515 148.92266629 146.01171875 146.50390625 C146.00612342 144.82667927 146.00185303 143.14944738 145.99885559 141.47221375 C145.98740178 137.05799825 145.95793011 132.64407895 145.92474365 128.22998047 C145.89405425 123.7256267 145.88035268 119.22122506 145.86523438 114.71679688 C145.83306083 105.87877613 145.78185808 97.04097519 145.71875 88.203125 C143.57907902 88.203125 141.72214055 89.72354025 139.85888672 90.69189453 Z M-179.28125 97.203125 C-180.09303711 97.38069336 -180.90482422 97.55826172 -181.74121094 97.74121094 C-200.15896893 101.87912132 -223.47697802 108.35242558 -234.28125 125.203125 C-234.64791725 126.86277678 -234.98521429 128.52943096 -235.28125 130.203125 C-230.13787613 135.01508699 -225.03543911 138.89913689 -218.78125 142.140625 C-217.56562378 142.77230591 -217.56562378 142.77230591 -216.32543945 143.41674805 C-192.81215959 155.17893513 -166.23891617 160.40075309 -140.28125 163.203125 C-139.00447388 163.34778198 -139.00447388 163.34778198 -137.7019043 163.49536133 C-128.53530433 164.40577892 -119.36039579 164.3892276 -110.15795898 164.38842773 C-107.38053631 164.39059628 -104.60352375 164.40876036 -101.82617188 164.42773438 C-85.21267587 164.48054544 -68.73206158 163.2562708 -52.34375 160.453125 C-51.35487793 160.28466064 -50.36600586 160.11619629 -49.34716797 159.94262695 C-23.91054309 155.40109499 3.81475729 147.46404009 23.71875 130.203125 C22.49812501 123.17564324 19.08868171 118.87944218 13.3515625 114.8359375 C-21.23226262 93.38780857 -64.96684144 89.98656675 -104.71875 89.953125 C-105.56041718 89.95211792 -106.40208435 89.95111084 -107.26925659 89.95007324 C-131.49950673 89.96945904 -155.58302211 91.94416931 -179.28125 97.203125 Z M18.70703125 159.74243164 C-1.69925732 170.22611524 -22.95483638 176.93603561 -45.53125 181.015625 C-46.60528076 181.210354 -47.67931152 181.40508301 -48.78588867 181.60571289 C-67.78623771 184.8362132 -86.59838239 185.57657932 -105.84375 185.515625 C-107.03712982 185.51380219 -108.23050964 185.51197937 -109.46005249 185.51010132 C-126.56986438 185.46606634 -143.38759373 185.17337506 -160.28125 182.203125 C-161.32297363 182.02620117 -162.36469727 181.84927734 -163.43798828 181.66699219 C-186.71971809 177.62073028 -210.67292414 172.0003518 -231.2578125 159.9296875 C-233.99042808 158.03782591 -233.99042808 158.03782591 -236.28125 158.203125 C-236.49027933 167.58263812 -236.64994126 176.96134332 -236.74755955 186.34268188 C-236.79442583 190.69950941 -236.85792875 195.05473754 -236.96020508 199.41064453 C-237.05838916 203.61886156 -237.11188702 207.82554612 -237.13514519 212.03482056 C-237.15170646 213.63611981 -237.18405052 215.2373401 -237.23282051 216.83798218 C-237.69313531 225.85116494 -237.69313531 225.85116494 -234.33406067 233.9372406 C-232.07687723 235.97723958 -229.87173217 237.61707662 -227.28125 239.203125 C-226.7039212 239.60737198 -226.12659241 240.01161896 -225.5317688 240.42811584 C-207.05310572 252.99323781 -183.31027602 258.59864569 -161.65625 262.453125 C-160.39035034 262.67971802 -160.39035034 262.67971802 -159.09887695 262.91088867 C-141.6714249 265.80485444 -124.29541327 266.57926401 -106.65625 266.515625 C-105.60331757 266.51380219 -104.55038513 266.51197937 -103.46554565 266.51010132 C-87.54525208 266.46377534 -71.99831092 265.94805385 -56.28125 263.203125 C-55.25177246 263.03151855 -54.22229492 262.85991211 -53.16162109 262.68310547 C-26.89672146 258.21579696 0.47832488 251.00327404 21.71875 234.203125 C22.25836868 233.8144072 22.79798737 233.42568939 23.35395813 233.02519226 C25.49784066 230.16299894 25.07729483 227.5974258 25.05932617 224.06958008 C25.05998329 222.98627663 25.05998329 222.98627663 25.06065369 221.88108826 C25.05856414 219.49466895 25.03522613 217.10895277 25.01171875 214.72265625 C25.00612336 213.06784957 25.001853 211.41303792 24.99885559 209.75822449 C24.98740224 205.40319086 24.95793098 201.04845749 24.92474365 196.69354248 C24.89405326 192.24951235 24.88035247 187.80543369 24.86523438 183.36132812 C24.83306162 174.64178931 24.78185952 165.92249451 24.71875 157.203125 C22.53316139 157.203125 20.61529791 158.75926156 18.70703125 159.74243164 Z M138.82324219 194.69165039 C109.91587433 209.89532222 79.04834358 214.448773 46.71875 219.203125 C46.71875 245.603125 46.71875 272.003125 46.71875 299.203125 C62.33251083 297.64775223 62.33251083 297.64775223 77.65625 294.953125 C78.65785156 294.73769043 79.65945313 294.52225586 80.69140625 294.30029297 C96.36078925 290.83170645 111.25510548 286.18064142 125.71875 279.203125 C127.26175781 278.46255859 127.26175781 278.46255859 128.8359375 277.70703125 C131.55489933 276.31742333 134.121175 274.80686484 136.71875 273.203125 C137.52138779 272.72125732 138.32402557 272.23938965 139.15098572 271.74291992 C143.19693391 268.8172018 145.40115629 266.63461261 146.50344849 261.66625977 C146.87647661 257.26027944 146.73214935 252.8672185 146.59765625 248.453125 C146.5808477 246.82791687 146.56804713 245.20266281 146.55906677 243.57739258 C146.52487619 239.32155068 146.43663187 235.06852059 146.33673096 230.81378174 C146.24427957 226.46348099 146.20347783 222.11272095 146.15820312 217.76171875 C146.06198789 209.24090413 145.90860752 200.72236534 145.71875 192.203125 C143.00117388 192.203125 141.18116552 193.44890277 138.82324219 194.69165039 Z M19.21557617 261.69165039 C-16.33888304 281.43216106 -58.17933783 286.96710716 -98.28125 288.203125 C-98.96767578 288.22648926 -99.65410156 288.24985352 -100.36132812 288.27392578 C-144.02529711 289.58472606 -193.25025106 283.71789928 -231.578125 261.671875 C-234.06141035 260.04398231 -234.06141035 260.04398231 -236.28125 260.203125 C-236.51365063 269.56528671 -236.6909772 278.92644594 -236.79937172 288.29086971 C-236.85141584 292.64002271 -236.92191343 296.98719317 -237.03564453 301.33520508 C-237.14485407 305.53698025 -237.20420216 309.7368578 -237.23002243 313.93994331 C-237.24840407 315.53768342 -237.28430388 317.13532738 -237.33855057 318.73225212 C-237.77125958 327.95301019 -237.77125958 327.95301019 -234.11096191 336.1643219 C-231.60603559 338.45565684 -229.13197035 340.36733157 -226.28125 342.203125 C-225.66732391 342.62924072 -225.05339783 343.05535645 -224.42086792 343.49438477 C-195.54308153 362.27919081 -154.7796367 368.2539971 -120.96484375 368.40625 C-119.91827606 368.41326431 -118.87170837 368.42027863 -117.79342651 368.42750549 C-114.43515675 368.44491238 -111.07706321 368.45135748 -107.71875 368.453125 C-106.57264252 368.45379974 -105.42653503 368.45447449 -104.24569702 368.45516968 C-87.73845424 368.43970358 -71.56601793 368.17357148 -55.28125 365.203125 C-54.26192383 365.02088379 -53.24259766 364.83864258 -52.19238281 364.65087891 C-9.79598529 356.90959881 -9.79598529 356.90959881 24.71875 333.203125 C25.29893259 329.81445413 25.29893259 329.81445413 25.17285156 325.95605469 C25.17343567 325.23370636 25.17401978 324.51135803 25.17462158 323.76712036 C25.1718408 321.38592012 25.14075139 319.0059808 25.109375 316.625 C25.10191253 314.97162561 25.09621963 313.31824236 25.09222412 311.66485596 C25.0769681 307.31794722 25.03768695 302.97157501 24.9934082 298.62487793 C24.95245458 294.18749245 24.93421294 289.75002008 24.9140625 285.3125 C24.8711923 276.60912907 24.80294184 267.90619382 24.71875 259.203125 C22.66575802 259.203125 20.96598126 260.71077173 19.21557617 261.69165039 Z M138.82080078 296.69213867 C110.03784499 311.84160679 78.71050182 317.20415602 46.71875 321.203125 C46.71875 349.583125 46.71875 377.963125 46.71875 407.203125 C60.05786943 406.31775315 60.05786943 406.31775315 73.21875 404.515625 C74.23066406 404.34264893 75.24257813 404.16967285 76.28515625 403.99145508 C98.50764644 400.03126689 128.13929798 394.36180444 142.71875 375.203125 C145.27642076 370.0945079 146.08910364 366.42208505 146.05932617 360.61547852 C146.05976425 359.89269211 146.06020233 359.1699057 146.06065369 358.42521667 C146.05858076 356.0605368 146.03532197 353.69658568 146.01171875 351.33203125 C146.00611744 349.68294156 146.00184987 348.03384685 145.99885559 346.38475037 C145.98744886 342.06265266 145.95801807 337.74086157 145.92474365 333.41888428 C145.89395239 329.00130357 145.88033097 324.58367291 145.86523438 320.16601562 C145.83314395 311.51157868 145.78199868 302.85739008 145.71875 294.203125 C143.00054073 294.203125 141.17969867 295.4498843 138.82080078 296.69213867 Z M18.70678711 363.99682617 C-42.76814392 398.08364406 -128.34009949 397.5680935 -194.48095703 379.01953125 C-205.86291234 375.70120008 -216.70846363 371.62852095 -227.38671875 366.47265625 C-228.24922241 366.0600354 -229.11172607 365.64741455 -230.00036621 365.22229004 C-232.09565931 364.21930918 -234.18922449 363.21289878 -236.28125 362.203125 C-236.37414826 371.71329506 -236.44511512 381.22330763 -236.48849869 390.73383331 C-236.50932628 395.15051868 -236.53755492 399.5668924 -236.58300781 403.98339844 C-236.62663889 408.24984274 -236.65042339 412.51598827 -236.66075897 416.78263855 C-236.66811951 418.40606892 -236.68249281 420.02948393 -236.70417023 421.65278625 C-236.83638552 431.9689121 -236.66215288 440.21267804 -229.09375 448.140625 C-211.12275586 464.95751859 -182.61367954 469.58714167 -159.28125 473.203125 C-158.22808594 473.36828613 -157.17492187 473.53344727 -156.08984375 473.70361328 C-105.38212835 481.22422076 -30.26751997 483.09698409 13.40625 451.703125 C18.61436311 447.55644799 22.57419602 443.63678694 24.71875 437.203125 C24.80947258 434.75426011 24.8448538 432.3345473 24.83227539 429.88598633 C24.83249443 428.77342216 24.83249443 428.77342216 24.8327179 427.63838196 C24.83202134 425.18727695 24.82424097 422.73624798 24.81640625 420.28515625 C24.81454116 418.58550559 24.81311768 416.88585439 24.81211853 415.186203 C24.80830055 410.71292639 24.79847638 406.23968224 24.78741455 401.76641846 C24.77718499 397.20170531 24.7726176 392.63698693 24.76757812 388.07226562 C24.75685349 379.11587115 24.73978567 370.15950078 24.71875 361.203125 C22.51099727 361.203125 20.59486765 362.93608309 18.70678711 363.99682617 Z " fill="#221E1F" transform="translate(300.28125,6.796875)"/>
</svg>
